<?xml version="1.0" encoding="UTF-8"?>
<svg width="32" height="32" viewBox="0 0 32 32" fill="none" xmlns="http://www.w3.org/2000/svg">
  <rect width="32" height="32" rx="8" fill="#0F172A"/>
  <path d="M11 10.5C11 9.67157 11.6716 9 12.5 9H19.5C20.3284 9 21 9.67157 21 10.5C21 11.3284 20.3284 12 19.5 12H12.5C11.6716 12 11 11.3284 11 10.5Z" fill="#6EE7B7"/>
  <path d="M11 16C11 15.1716 11.6716 14.5 12.5 14.5H19.5C20.3284 14.5 21 15.1716 21 16C21 16.8284 20.3284 17.5 19.5 17.5H12.5C11.6716 17.5 11 16.8284 11 16Z" fill="#6EE7B7"/>
  <path d="M15.5 19.5C16.3284 19.5 17 20.1716 17 21C17 21.8284 16.3284 22.5 15.5 22.5H12.5C11.6716 22.5 11 21.8284 11 21C11 20.1716 11.6716 19.5 12.5 19.5H15.5Z" fill="#6EE7B7"/>
</svg> 